<svg viewBox="0 0 147 147" xmlns="http://www.w3.org/2000/svg"><circle cx="73.5" cy="73.5" r="73.5"/><circle cx="48.27" cy="47.43" fill="#fff" r="3.25"/><path d="m136.31 94.88-4.37-5.25c-1.08 5.79-2.28 10.18-2.64 14.64-.59 7.4-1.56 14.93 2.54 21.86 1.47 2.47.22 3.68-2.35 3.71-3.73.05-7.49.22-11.2-.08-5.08-.41-6.26-4.55-7.28-8.54-.43-1.71.18-3.87-.65-5.24-1-1.63-2.85-3.43-4.61-3.77a116 116 0 0 0 -16.67-2c-1.85-.08-4.86 1.08-5.45 2.48a37.65 37.65 0 0 0 -3 12c-.25 3.8-1.47 5.4-5.19 5.15a18.66 18.66 0 0 0 -3.41 0c-11.08 1.32-13.36-3.64-10.85-15 1.13-5.13 4.71-9.88 7.77-14.39 4-5.9 8.64-11.36 12.93-17.07 10.79-14.34 6.36-32.2-2.72-42.62-.62-.72-1.2-1.48-2.63-3.26 14.83.58 27.74 3.74 39 12 14.93 10.92 19.35 26.9 20.78 45.38z" fill="#fdb713" transform="translate(-15 -12.5)"/><path d="m54.36 128.3c-4.69 1.71-7 .2-8-3.68-5.52-21.59-7.21-43.33-.13-64.8 2.05-6.22 6.23-12.08 10.59-17.1 4.62-5.32 10.72-4.48 15.84.41 7.58 7.24 12.07 22.76 3.68 33.87-5 6.6-10.16 13.06-15 19.74-5.16 7.07-9 14.73-8.16 23.86.18 2.52.75 5.03 1.18 7.7z" fill="#be2436" transform="translate(-15 -12.5)"/><circle cx="50.37" cy="49.43" fill="#fff" r="3.59"/><path d="m54.92 128.3c-4.69 1.71-7 .2-8-3.68-5.52-21.59-7.21-43.33-.13-64.8 2.07-6.21 6.21-12.08 10.61-17.1 4.62-5.32 10.72-4.48 15.84.41 7.56 7.24 12.05 22.76 3.67 33.87-5 6.6-10.16 13.06-15 19.74-5.16 7.07-9 14.73-8.16 23.86.18 2.52.74 5.03 1.17 7.7z" fill="#be2436" transform="translate(-15 -12.5)"/><circle cx="50.94" cy="47.67" fill="#fff" r="3.03"/></svg>